<?xml version="1.0" encoding="UTF-8" standalone="no"?>
<!-- Generator: Adobe Illustrator 14.0.0, SVG Export Plug-In . SVG Version: 6.00 Build 43363)  -->

<svg
   xmlns:dc="http://purl.org/dc/elements/1.1/"
   xmlns:cc="http://creativecommons.org/ns#"
   xmlns:rdf="http://www.w3.org/1999/02/22-rdf-syntax-ns#"
   xmlns:svg="http://www.w3.org/2000/svg"
   xmlns="http://www.w3.org/2000/svg"
   xmlns:sodipodi="http://sodipodi.sourceforge.net/DTD/sodipodi-0.dtd"
   xmlns:inkscape="http://www.inkscape.org/namespaces/inkscape"
   version="1.1"
   id="Layer_1"
   x="0px"
   y="0px"
   width="100"
   height="61"
   viewBox="0 0 100 61"
   enable-background="new 0 0 54 36"
   xml:space="preserve"
   inkscape:version="0.48.5 r10040"
   sodipodi:docname="ButtonHover.svg"><metadata
     id="metadata49"><rdf:RDF><cc:Work
         rdf:about=""><dc:format>image/svg+xml</dc:format><dc:type
           rdf:resource="http://purl.org/dc/dcmitype/StillImage" /></cc:Work></rdf:RDF></metadata><defs
     id="defs47" /><sodipodi:namedview
     pagecolor="#ffffff"
     bordercolor="#666666"
     borderopacity="1"
     objecttolerance="10"
     gridtolerance="10"
     guidetolerance="10"
     inkscape:pageopacity="0"
     inkscape:pageshadow="2"
     inkscape:window-width="1920"
     inkscape:window-height="1021"
     id="namedview45"
     showgrid="false"
     inkscape:zoom="6.0555556"
     inkscape:cx="7.3486239"
     inkscape:cy="18"
     inkscape:window-x="0"
     inkscape:window-y="0"
     inkscape:window-maximized="1"
     inkscape:current-layer="Layer_1" /><path
     style="fill:#0098d7"
     inkscape:connector-curvature="0"
     id="path5"
     d="M 9.7729676,37.067821 H 11.00056 l 2.509192,13.023267 H 11.945661 L 11.507384,47.552196 H 9.1892898 L 8.7427036,50.091088 H 7.2263877 L 9.7729676,37.067821 z m 1.5080074,9.127525 -0.34896,-2.074816 c -0.232641,-1.413039 -0.421661,-2.917645 -0.567061,-4.522141 -0.07062,0.782478 -0.162017,1.573281 -0.272106,2.376569 -0.1121659,0.801208 -0.243026,1.65028 -0.3925805,2.551379 l -0.2887231,1.67109 h 1.8694306 z" /><path
     style="fill:#0098d7"
     inkscape:connector-curvature="0"
     id="path7"
     d="m 13.966724,37.067821 h 1.470618 l 1.568245,5.196404 c 0.454895,1.467147 0.857861,3.032103 1.204744,4.69695 -0.126706,-1.005151 -0.2181,-1.916655 -0.280415,-2.730349 -0.06231,-0.813694 -0.09139,-1.583686 -0.09139,-2.301651 v -4.859273 h 1.576553 v 13.023267 h -1.474773 l -1.761419,-5.860262 c -0.162017,-0.547318 -0.313649,-1.105042 -0.459049,-1.679414 -0.143323,-0.572292 -0.27626,-1.173718 -0.396735,-1.804278 -0.01038,-0.07908 -0.027,-0.174809 -0.04985,-0.287187 -0.02285,-0.114458 -0.04778,-0.241402 -0.07893,-0.389158 0.01454,0.145675 0.027,0.270538 0.03739,0.374591 0.01039,0.106134 0.01869,0.193539 0.02285,0.266376 l 0.08308,1.325634 0.08932,1.608659 c 0.0062,0.09157 0.01038,0.201862 0.01246,0.328807 0.0021,0.129026 0.0042,0.276781 0.0042,0.439103 l 0.08309,5.677129 H 13.966724 V 37.067821 z" /><path
     style="fill:#0098d7"
     inkscape:connector-curvature="0"
     id="path9"
     d="m 22.642959,37.067821 h 1.227592 l 2.509192,13.023267 h -1.559936 l -0.438278,-2.538892 h -2.318094 l -0.446586,2.538892 H 20.10261 l 2.540349,-13.023267 z m 1.508007,9.127525 -0.34896,-2.074816 c -0.232641,-1.413039 -0.421661,-2.917645 -0.567061,-4.522141 -0.07062,0.782478 -0.162017,1.573281 -0.272106,2.376569 -0.112166,0.801208 -0.243026,1.65028 -0.39258,2.551379 l -0.288724,1.67109 h 1.869431 z" /><path
     style="fill:#0098d7"
     inkscape:connector-curvature="0"
     id="path11"
     d="m 27.146209,37.067821 h 1.576553 v 11.539472 h 2.57566 v 1.483795 H 27.146209 V 37.067821 z" /><path
     style="fill:#0098d7"
     inkscape:connector-curvature="0"
     id="path13"
     d="m 37.363686,43.902019 c 0,2.297489 -0.228486,3.933201 -0.689612,4.898812 -0.459049,0.967693 -1.22967,1.450499 -2.309786,1.450499 -1.136198,0 -1.937976,-0.520265 -2.401179,-1.560795 -0.459049,-1.017637 -0.689612,-2.823997 -0.689612,-5.421158 0,-2.316219 0.226408,-3.956093 0.68338,-4.917542 0.459049,-0.967693 1.237979,-1.450498 2.332634,-1.450498 0.980413,0 1.707413,0.37459 2.18308,1.12169 0.313649,0.501536 0.540057,1.213258 0.681303,2.133086 0.139169,0.855315 0.209792,2.10395 0.209792,3.745906 z m -1.65133,0.185214 c 0,-2.253787 -0.09139,-3.750068 -0.272106,-4.486763 -0.180712,-0.740857 -0.552521,-1.111285 -1.11335,-1.111285 -0.560829,0 -0.934715,0.339212 -1.121659,1.019719 -0.180711,0.684668 -0.272106,2.062329 -0.272106,4.130901 0,1.90625 0.09555,3.227723 0.288724,3.964418 0.197328,0.697154 0.564983,1.044691 1.107118,1.044691 0.529672,0 0.893172,-0.324645 1.090501,-0.978097 0.195252,-0.645129 0.292878,-1.841738 0.292878,-3.583584 z" /><path
     style="fill:#0098d7"
     inkscape:connector-curvature="0"
     id="path15"
     d="m 40.952993,43.242323 h 2.862306 v 0.505697 c 0,2.536811 -0.199406,4.247442 -0.598218,5.138135 -0.392581,0.911504 -1.129967,1.365175 -2.21216,1.365175 -1.117504,0 -1.910973,-0.505698 -2.386639,-1.517092 -0.469435,-1.011395 -0.704153,-2.713701 -0.704153,-5.102757 0,-2.73243 0.257566,-4.551276 0.772698,-5.456536 0.483975,-0.849072 1.22967,-1.273608 2.235009,-1.273608 0.768543,0 1.366761,0.206025 1.794653,0.615993 0.434123,0.416212 0.772698,1.098799 1.015724,2.049843 l -1.470619,0.682587 c -0.06647,-0.343374 -0.139169,-0.632641 -0.2181,-0.863639 -0.08101,-0.233079 -0.170326,-0.414131 -0.265875,-0.545237 -0.191097,-0.264295 -0.47982,-0.395402 -0.864092,-0.395402 -0.525518,0 -0.882787,0.360024 -1.075961,1.08007 -0.193175,0.753343 -0.288723,2.106032 -0.288723,4.055984 0,1.972844 0.09763,3.308883 0.294954,4.006038 0.197329,0.699236 0.567061,1.046773 1.11335,1.046773 0.500592,0 0.851629,-0.247646 1.053113,-0.740857 0.207714,-0.528589 0.309494,-1.377661 0.309494,-2.547216 V 44.990413 44.73028 h -1.370916 v -1.487957 z" /><path
     style="fill:#0098d7"
     inkscape:connector-curvature="0"
     id="path17"
     d="m 44.328353,44.963359 h 2.758449 v 1.315229 h -2.758449 v -1.315229 z" /><path
     style="fill:#0098d7"
     inkscape:connector-curvature="0"
     id="path19"
     d="m 47.923892,38.915802 h 1.445693 v 2.447325 h 0.787238 v 1.281932 h -0.787238 v 7.446029 h -1.445693 v -7.446029 h -0.795547 v -1.281932 h 0.795547 v -2.447325 z" /><path
     style="fill:#0098d7"
     inkscape:connector-curvature="0"
     id="path21"
     d="m 55.328914,45.799945 c 0,2.950941 -0.820472,4.426412 -2.463494,4.426412 -1.638868,0 -2.461417,-1.498363 -2.461417,-4.495087 0,-3.00713 0.818395,-4.511736 2.455185,-4.511736 0.423738,0 0.791393,0.08948 1.100887,0.270538 0.311572,0.181052 0.567061,0.459914 0.770621,0.834504 0.201483,0.376672 0.351038,0.851153 0.450741,1.425526 0.09763,0.572291 0.147477,1.256959 0.147477,2.049843 z m -1.499699,-0.0437 c 0,-1.148744 -0.06647,-1.94579 -0.205637,-2.395298 -0.135015,-0.455752 -0.378041,-0.682588 -0.727001,-0.682588 -0.344806,0 -0.587832,0.224755 -0.735309,0.674263 -0.135015,0.45159 -0.205638,1.234068 -0.205638,2.353678 0,1.11961 0.06855,1.900007 0.205638,2.345353 0.147477,0.449509 0.390503,0.674263 0.735309,0.674263 0.342729,0 0.581601,-0.222673 0.718692,-0.665938 0.143323,-0.416212 0.213946,-1.186204 0.213946,-2.303733 z" /><path
     style="fill:#0098d7"
     inkscape:connector-curvature="0"
     id="path23"
     d="m 55.7028,44.963359 h 2.756372 v 1.315229 H 55.7028 v -1.315229 z" /><path
     style="fill:#0098d7"
     inkscape:connector-curvature="0"
     id="path25"
     d="m 59.206944,37.067821 h 1.940053 c 0.591987,0 1.088424,0.07284 1.493468,0.218512 0.373886,0.139431 0.708306,0.391239 1.001184,0.751262 0.438277,0.538994 0.749849,1.242392 0.936792,2.108113 0.186943,0.836585 0.282492,2.037356 0.282492,3.600231 0,1.43385 -0.103857,2.603405 -0.309495,3.510747 -0.20356,0.86572 -0.535903,1.525416 -1.001184,1.981168 -0.569138,0.566048 -1.59317,0.851153 -3.067943,0.851153 H 59.206944 V 37.067821 z m 1.57863,11.489527 c 0.957564,0 1.599402,-0.322565 1.923436,-0.971855 0.332344,-0.647209 0.498515,-1.902088 0.498515,-3.770879 0,-2.00614 -0.157863,-3.385882 -0.475666,-4.139226 -0.317803,-0.753343 -0.901481,-1.130015 -1.751033,-1.130015 h -0.195252 v 10.011975 z" /><path
     style="fill:#0098d7"
     inkscape:connector-curvature="0"
     id="path27"
     d="m 65.96182,37.067821 h 1.57863 V 50.091088 H 65.96182 V 37.067821 z" /><path
     style="fill:#0098d7"
     inkscape:connector-curvature="0"
     id="path29"
     d="m 71.6802,43.242323 h 2.862306 v 0.505697 c 0,2.536811 -0.199406,4.247442 -0.596141,5.138135 -0.39258,0.911504 -1.132044,1.365175 -2.212159,1.365175 -1.117504,0 -1.913051,-0.505698 -2.38664,-1.517092 -0.469435,-1.011395 -0.704152,-2.713701 -0.704152,-5.102757 0,-2.73243 0.257566,-4.551276 0.772698,-5.456536 0.483975,-0.849072 1.22967,-1.273608 2.235008,-1.273608 0.766467,0 1.366762,0.206025 1.794654,0.615993 0.4362,0.416212 0.772697,1.098799 1.015723,2.049843 L 72.990879,40.24976 C 72.92441,39.906386 72.85171,39.617119 72.772778,39.386121 72.69177,39.153042 72.60453,38.97199 72.506904,38.840884 c -0.191097,-0.264295 -0.477743,-0.395402 -0.864092,-0.395402 -0.525518,0 -0.884864,0.360024 -1.075962,1.08007 -0.193174,0.753343 -0.288723,2.106032 -0.288723,4.055984 0,1.972844 0.09763,3.308883 0.297032,4.006038 0.195252,0.699236 0.567061,1.046773 1.111273,1.046773 0.500592,0 0.851629,-0.247646 1.055189,-0.740857 0.207715,-0.528589 0.309495,-1.377661 0.309495,-2.547216 V 44.990413 44.73028 H 71.6802 v -1.487957 z" /><path
     style="fill:#0098d7"
     inkscape:connector-curvature="0"
     id="path31"
     d="M 75.64547,37.067821 H 77.2241 V 50.091088 H 75.64547 V 37.067821 z" /><path
     style="fill:#0098d7"
     inkscape:connector-curvature="0"
     id="path33"
     d="m 77.629144,37.067821 h 5.128471 v 1.535822 H 80.992042 V 50.091088 H 79.446646 V 38.603643 h -1.817502 v -1.535822 z" /><path
     style="fill:#0098d7"
     inkscape:connector-curvature="0"
     id="path35"
     d="m 84.303011,37.067821 h 1.225516 l 2.509191,13.023267 h -1.559936 l -0.440355,-2.538892 h -2.318094 l -0.446586,2.538892 h -1.516316 l 2.54658,-13.023267 z m 1.508007,9.127525 -0.34896,-2.074816 c -0.23264,-1.413039 -0.421661,-2.917645 -0.567061,-4.522141 -0.07062,0.782478 -0.15994,1.573281 -0.274183,2.376569 -0.110089,0.801208 -0.240949,1.65028 -0.39258,2.551379 l -0.288723,1.67109 h 1.871507 z" /><path
     style="fill:#0098d7"
     inkscape:connector-curvature="0"
     id="path37"
     d="m 88.806262,37.067821 h 1.576553 v 11.539472 h 2.573582 v 1.483795 H 88.806262 V 37.067821 z" /><path
     d="M 93.228505,-2.9574e-7 H 6.7694159 C 3.0305547,-2.9574e-7 -4.84e-8,3.0362656 -4.84e-8,6.7821715 V 54.215747 c 0,3.743825 3.0305547484,6.784252 6.7694159484,6.784252 H 93.228505 c 3.738861,0 6.771492,-3.040427 6.771492,-6.784252 V 6.7821715 C 99.999997,3.0362656 96.967366,-2.9574e-7 93.228505,-2.9574e-7 z M 95.359656,52.151337 c 0,2.395298 -1.940054,4.341088 -4.330849,4.341088 H 8.6118436 c -2.390794,0 -4.3287704,-1.94579 -4.3287704,-4.341088 V 35.107464 c 0,-2.393218 1.9379764,-4.334846 4.3287704,-4.334846 H 62.318509 c 3.227883,4.012282 8.161102,6.586552 13.69254,6.586552 5.525206,0 10.458425,-2.57427 13.686309,-6.586552 h 1.331449 c 2.390795,0 4.330849,1.941628 4.330849,4.334846 v 17.043873 z"
     id="path39"
     inkscape:connector-curvature="0"
     style="fill:#55ddff" /><path
     d="m 76.013126,4.5991403 c -8.329351,0 -15.109154,6.7925757 -15.113309,15.1397027 0,8.349209 6.78188,15.139705 15.113309,15.139705 8.327274,0 15.104999,-6.792576 15.109153,-15.139705 0,-8.347127 -6.779801,-15.1397027 -15.109153,-15.1397027 z m 0,27.3700867 c -6.732027,0 -12.209459,-5.487753 -12.209459,-12.230384 0,-6.742629 5.477432,-12.2303821 12.209459,-12.2345441 6.732028,0 12.209459,5.4898331 12.209459,12.2345441 0,6.744713 -5.477431,12.230384 -12.209459,12.230384 z"
     id="path41"
     inkscape:connector-curvature="0"
     style="fill:#ffffff" /><path
     d="m 84.539807,17.724379 c -0.832936,0 -1.512162,0.66802 -1.512162,1.492119 0,0.0063 0.0042,0.01242 0.0042,0.0208 v 0.499454 c 0,1.533741 -1.248364,2.784457 -2.77922,2.786538 -1.530855,0 -2.77922,-1.248635 -2.77922,-2.782376 0,-1.55455 -0.604449,-3.015454 -1.703259,-4.116335 -1.094656,-1.094636 -2.546579,-1.696062 -4.085744,-1.696062 -0.0021,0 -0.0063,0 -0.0084,0 -3.20088,0 -5.803542,2.605486 -5.803542,5.808235 v 0.520265 c 0,0.8241 0.677148,1.49212 1.512162,1.49212 0.835012,0 1.514238,-0.66802 1.514238,-1.49212 v -0.520258 c 0,-1.533741 1.248364,-2.784457 2.77922,-2.784457 0.739464,0 1.435308,0.289267 1.960825,0.815776 0.525518,0.528588 0.814241,1.227824 0.814241,1.972843 0,3.204831 2.602663,5.812397 5.801466,5.812397 3.196727,0 5.799389,-2.609647 5.799389,-5.816559 v -0.520265 c 0,-0.824099 -0.677149,-1.492119 -1.514238,-1.492119 z"
     id="path43"
     inkscape:connector-curvature="0"
     style="fill:#ffffff" /></svg>