<?xml version="1.0" encoding="UTF-8" standalone="no"?>
<!-- Generator: Adobe Illustrator 14.0.0, SVG Export Plug-In . SVG Version: 6.00 Build 43363)  -->

<svg
   xmlns:dc="http://purl.org/dc/elements/1.1/"
   xmlns:cc="http://creativecommons.org/ns#"
   xmlns:rdf="http://www.w3.org/1999/02/22-rdf-syntax-ns#"
   xmlns:svg="http://www.w3.org/2000/svg"
   xmlns="http://www.w3.org/2000/svg"
   xmlns:sodipodi="http://sodipodi.sourceforge.net/DTD/sodipodi-0.dtd"
   xmlns:inkscape="http://www.inkscape.org/namespaces/inkscape"
   version="1.1"
   id="Layer_1"
   x="0px"
   y="0px"
   width="100"
   height="61"
   viewBox="0 0 100 61"
   enable-background="new 0 0 54 36"
   xml:space="preserve"
   inkscape:version="0.48.5 r10040"
   sodipodi:docname="ButtonPress.svg"><metadata
     id="metadata49"><rdf:RDF><cc:Work
         rdf:about=""><dc:format>image/svg+xml</dc:format><dc:type
           rdf:resource="http://purl.org/dc/dcmitype/StillImage" /></cc:Work></rdf:RDF></metadata><defs
     id="defs47" /><sodipodi:namedview
     pagecolor="#ffffff"
     bordercolor="#666666"
     borderopacity="1"
     objecttolerance="10"
     gridtolerance="10"
     guidetolerance="10"
     inkscape:pageopacity="0"
     inkscape:pageshadow="2"
     inkscape:window-width="1920"
     inkscape:window-height="1021"
     id="namedview45"
     showgrid="false"
     inkscape:zoom="6.0555556"
     inkscape:cx="7.3486239"
     inkscape:cy="18"
     inkscape:window-x="0"
     inkscape:window-y="0"
     inkscape:window-maximized="1"
     inkscape:current-layer="Layer_1" /><g
     id="g3"
     transform="matrix(2.0771451,0,0,2.0810589,-6.0569552,-6.7655222)"
     style="fill:#ff6600"><path
       d="M 7.621,21.063 H 8.212 L 9.42,27.321 H 8.667 L 8.456,26.101 H 7.34 l -0.215,1.22 H 6.395 L 7.621,21.063 z M 8.347,25.449 8.179,24.452 C 8.067,23.773 7.976,23.05 7.906,22.279 7.872,22.655 7.828,23.035 7.775,23.421 7.721,23.806 7.658,24.214 7.586,24.647 L 7.447,25.45 h 0.9 z"
       id="path5"
       inkscape:connector-curvature="0"
       style="fill:#ff6600" /><path
       d="m 9.64,21.063 h 0.708 l 0.755,2.497 c 0.219,0.705 0.413,1.457 0.58,2.257 -0.061,-0.483 -0.105,-0.921 -0.135,-1.312 -0.03,-0.391 -0.044,-0.761 -0.044,-1.106 v -2.335 h 0.759 v 6.258 h -0.71 l -0.848,-2.816 c -0.078,-0.263 -0.151,-0.531 -0.221,-0.807 -0.069,-0.275 -0.133,-0.564 -0.191,-0.867 -0.005,-0.038 -0.013,-0.084 -0.024,-0.138 -0.011,-0.055 -0.023,-0.116 -0.038,-0.187 0.007,0.07 0.013,0.13 0.018,0.18 0.005,0.051 0.009,0.093 0.011,0.128 l 0.04,0.637 0.043,0.773 c 0.003,0.044 0.005,0.097 0.006,0.158 10e-4,0.062 0.002,0.133 0.002,0.211 l 0.04,2.728 H 9.64 v -6.259 z"
       id="path7"
       inkscape:connector-curvature="0"
       style="fill:#ff6600" /><path
       d="m 13.817,21.063 h 0.591 l 1.208,6.258 h -0.751 l -0.211,-1.22 h -1.116 l -0.215,1.22 h -0.729 l 1.223,-6.258 z m 0.726,4.386 -0.168,-0.997 c -0.112,-0.679 -0.203,-1.402 -0.273,-2.173 -0.034,0.376 -0.078,0.756 -0.131,1.142 -0.054,0.385 -0.117,0.793 -0.189,1.226 l -0.139,0.803 h 0.9 z"
       id="path9"
       inkscape:connector-curvature="0"
       style="fill:#ff6600" /><path
       d="m 15.985,21.063 h 0.759 v 5.545 h 1.24 v 0.713 h -1.999 v -6.258 z"
       id="path11"
       inkscape:connector-curvature="0"
       style="fill:#ff6600" /><path
       d="m 20.904,24.347 c 0,1.104 -0.11,1.89 -0.332,2.354 -0.221,0.465 -0.592,0.697 -1.112,0.697 -0.547,0 -0.933,-0.25 -1.156,-0.75 -0.221,-0.489 -0.332,-1.357 -0.332,-2.605 0,-1.113 0.109,-1.901 0.329,-2.363 0.221,-0.465 0.596,-0.697 1.123,-0.697 0.472,0 0.822,0.18 1.051,0.539 0.151,0.241 0.26,0.583 0.328,1.025 0.067,0.411 0.101,1.011 0.101,1.8 z m -0.795,0.089 c 0,-1.083 -0.044,-1.802 -0.131,-2.156 -0.087,-0.356 -0.266,-0.534 -0.536,-0.534 -0.27,0 -0.45,0.163 -0.54,0.49 -0.087,0.329 -0.131,0.991 -0.131,1.985 0,0.916 0.046,1.551 0.139,1.905 0.095,0.335 0.272,0.502 0.533,0.502 0.255,0 0.43,-0.156 0.525,-0.47 0.094,-0.31 0.141,-0.885 0.141,-1.722 z"
       id="path13"
       inkscape:connector-curvature="0"
       style="fill:#ff6600" /><path
       d="m 22.632,24.03 h 1.378 v 0.243 c 0,1.219 -0.096,2.041 -0.288,2.469 -0.189,0.438 -0.544,0.656 -1.065,0.656 -0.538,0 -0.92,-0.243 -1.149,-0.729 -0.226,-0.486 -0.339,-1.304 -0.339,-2.452 0,-1.313 0.124,-2.187 0.372,-2.622 0.233,-0.408 0.592,-0.612 1.076,-0.612 0.37,0 0.658,0.099 0.864,0.296 0.209,0.2 0.372,0.528 0.489,0.985 l -0.708,0.328 c -0.032,-0.165 -0.067,-0.304 -0.105,-0.415 -0.039,-0.112 -0.082,-0.199 -0.128,-0.262 -0.092,-0.127 -0.231,-0.19 -0.416,-0.19 -0.253,0 -0.425,0.173 -0.518,0.519 -0.093,0.362 -0.139,1.012 -0.139,1.949 0,0.948 0.047,1.59 0.142,1.925 0.095,0.336 0.273,0.503 0.536,0.503 0.241,0 0.41,-0.119 0.507,-0.356 0.1,-0.254 0.149,-0.662 0.149,-1.224 V 24.87 24.745 H 22.63 V 24.03 z"
       id="path15"
       inkscape:connector-curvature="0"
       style="fill:#ff6600" /><path
       d="m 24.257,24.857 h 1.328 v 0.632 h -1.328 v -0.632 z"
       id="path17"
       inkscape:connector-curvature="0"
       style="fill:#ff6600" /><path
       d="m 25.988,21.951 h 0.696 v 1.176 h 0.379 v 0.616 h -0.379 v 3.578 h -0.696 v -3.578 h -0.383 v -0.616 h 0.383 v -1.176 z"
       id="path19"
       inkscape:connector-curvature="0"
       style="fill:#ff6600" /><path
       d="m 29.553,25.259 c 0,1.418 -0.395,2.127 -1.186,2.127 -0.789,0 -1.185,-0.72 -1.185,-2.16 0,-1.445 0.394,-2.168 1.182,-2.168 0.204,0 0.381,0.043 0.53,0.13 0.15,0.087 0.273,0.221 0.371,0.401 0.097,0.181 0.169,0.409 0.217,0.685 0.047,0.275 0.071,0.604 0.071,0.985 z m -0.722,-0.021 c 0,-0.552 -0.032,-0.935 -0.099,-1.151 -0.065,-0.219 -0.182,-0.328 -0.35,-0.328 -0.166,0 -0.283,0.108 -0.354,0.324 -0.065,0.217 -0.099,0.593 -0.099,1.131 0,0.538 0.033,0.913 0.099,1.127 0.071,0.216 0.188,0.324 0.354,0.324 0.165,0 0.28,-0.107 0.346,-0.32 0.069,-0.2 0.103,-0.57 0.103,-1.107 z"
       id="path21"
       inkscape:connector-curvature="0"
       style="fill:#ff6600" /><path
       d="m 29.733,24.857 h 1.327 v 0.632 h -1.327 v -0.632 z"
       id="path23"
       inkscape:connector-curvature="0"
       style="fill:#ff6600" /><path
       d="m 31.42,21.063 h 0.934 c 0.285,0 0.524,0.035 0.719,0.105 0.18,0.067 0.341,0.188 0.482,0.361 0.211,0.259 0.361,0.597 0.451,1.013 0.09,0.402 0.136,0.979 0.136,1.73 0,0.689 -0.05,1.251 -0.149,1.687 -0.098,0.416 -0.258,0.733 -0.482,0.952 -0.274,0.272 -0.767,0.409 -1.477,0.409 H 31.42 v -6.257 z m 0.76,5.521 c 0.461,0 0.77,-0.155 0.926,-0.467 0.16,-0.311 0.24,-0.914 0.24,-1.812 0,-0.964 -0.076,-1.627 -0.229,-1.989 -0.153,-0.362 -0.434,-0.543 -0.843,-0.543 H 32.18 v 4.811 z"
       id="path25"
       inkscape:connector-curvature="0"
       style="fill:#ff6600" /><path
       d="m 34.672,21.063 h 0.76 v 6.258 h -0.76 v -6.258 z"
       id="path27"
       inkscape:connector-curvature="0"
       style="fill:#ff6600" /><path
       d="m 37.425,24.03 h 1.378 v 0.243 c 0,1.219 -0.096,2.041 -0.287,2.469 -0.189,0.438 -0.545,0.656 -1.065,0.656 -0.538,0 -0.921,-0.243 -1.149,-0.729 -0.226,-0.486 -0.339,-1.304 -0.339,-2.452 0,-1.313 0.124,-2.187 0.372,-2.622 0.233,-0.408 0.592,-0.612 1.076,-0.612 0.369,0 0.658,0.099 0.864,0.296 0.21,0.2 0.372,0.528 0.489,0.985 l -0.708,0.328 c -0.032,-0.165 -0.067,-0.304 -0.105,-0.415 -0.039,-0.112 -0.081,-0.199 -0.128,-0.262 -0.092,-0.127 -0.23,-0.19 -0.416,-0.19 -0.253,0 -0.426,0.173 -0.518,0.519 -0.093,0.362 -0.139,1.012 -0.139,1.949 0,0.948 0.047,1.59 0.143,1.925 0.094,0.336 0.273,0.503 0.535,0.503 0.241,0 0.41,-0.119 0.508,-0.356 0.1,-0.254 0.149,-0.662 0.149,-1.224 V 24.87 24.745 h -0.66 V 24.03 z"
       id="path29"
       inkscape:connector-curvature="0"
       style="fill:#ff6600" /><path
       d="m 39.334,21.063 h 0.76 v 6.258 h -0.76 v -6.258 z"
       id="path31"
       inkscape:connector-curvature="0"
       style="fill:#ff6600" /><path
       d="m 40.289,21.063 h 2.469 v 0.738 h -0.85 v 5.52 h -0.744 v -5.52 h -0.875 v -0.738 z"
       id="path33"
       inkscape:connector-curvature="0"
       style="fill:#ff6600" /><path
       d="m 43.502,21.063 h 0.59 l 1.208,6.258 h -0.751 l -0.212,-1.22 h -1.116 l -0.215,1.22 h -0.73 l 1.226,-6.258 z m 0.726,4.386 -0.168,-0.997 c -0.112,-0.679 -0.203,-1.402 -0.273,-2.173 -0.034,0.376 -0.077,0.756 -0.132,1.142 -0.053,0.385 -0.116,0.793 -0.189,1.226 l -0.139,0.803 h 0.901 z"
       id="path35"
       inkscape:connector-curvature="0"
       style="fill:#ff6600" /><path
       d="m 45.67,21.063 h 0.759 v 5.545 h 1.239 v 0.713 H 45.67 v -6.258 z"
       id="path37"
       inkscape:connector-curvature="0"
       style="fill:#ff6600" /></g><path
     d="M 93.228505,-2.9574e-7 H 6.7694159 C 3.0305547,-2.9574e-7 -4.84e-8,3.0362656 -4.84e-8,6.7821715 V 54.215747 c 0,3.743825 3.0305547484,6.784252 6.7694159484,6.784252 H 93.228505 c 3.738861,0 6.771492,-3.040427 6.771492,-6.784252 V 6.7821715 C 99.999997,3.0362656 96.967366,-2.9574e-7 93.228505,-2.9574e-7 z M 95.359656,52.151337 c 0,2.395298 -1.940054,4.341088 -4.330849,4.341088 H 8.6118436 c -2.390794,0 -4.3287704,-1.94579 -4.3287704,-4.341088 V 35.107464 c 0,-2.393218 1.9379764,-4.334846 4.3287704,-4.334846 H 62.318509 c 3.227883,4.012282 8.161102,6.586552 13.69254,6.586552 5.525206,0 10.458425,-2.57427 13.686309,-6.586552 h 1.331449 c 2.390795,0 4.330849,1.941628 4.330849,4.334846 v 17.043873 z"
     id="path39"
     inkscape:connector-curvature="0"
     style="fill:#ff7f2a" /><path
     d="m 76.013126,4.5991403 c -8.329351,0 -15.109154,6.7925757 -15.113309,15.1397027 0,8.349209 6.78188,15.139705 15.113309,15.139705 8.327274,0 15.104999,-6.792576 15.109153,-15.139705 0,-8.347127 -6.779801,-15.1397027 -15.109153,-15.1397027 z m 0,27.3700867 c -6.732027,0 -12.209459,-5.487753 -12.209459,-12.230384 0,-6.742629 5.477432,-12.2303821 12.209459,-12.2345441 6.732028,0 12.209459,5.4898331 12.209459,12.2345441 0,6.744713 -5.477431,12.230384 -12.209459,12.230384 z"
     id="path41"
     inkscape:connector-curvature="0"
     style="fill:#ffffff" /><path
     d="m 84.539807,17.724379 c -0.832936,0 -1.512162,0.66802 -1.512162,1.492119 0,0.0063 0.0042,0.01242 0.0042,0.0208 v 0.499454 c 0,1.533741 -1.248364,2.784457 -2.77922,2.786538 -1.530855,0 -2.77922,-1.248635 -2.77922,-2.782376 0,-1.55455 -0.604449,-3.015454 -1.703259,-4.116335 -1.094656,-1.094636 -2.546579,-1.696062 -4.085744,-1.696062 -0.0021,0 -0.0063,0 -0.0084,0 -3.20088,0 -5.803542,2.605486 -5.803542,5.808235 v 0.520265 c 0,0.8241 0.677148,1.49212 1.512162,1.49212 0.835012,0 1.514238,-0.66802 1.514238,-1.49212 v -0.520258 c 0,-1.533741 1.248364,-2.784457 2.77922,-2.784457 0.739464,0 1.435308,0.289267 1.960825,0.815776 0.525518,0.528588 0.814241,1.227824 0.814241,1.972843 0,3.204831 2.602663,5.812397 5.801466,5.812397 3.196727,0 5.799389,-2.609647 5.799389,-5.816559 v -0.520265 c 0,-0.824099 -0.677149,-1.492119 -1.514238,-1.492119 z"
     id="path43"
     inkscape:connector-curvature="0"
     style="fill:#ffffff" /></svg>