<?xml version="1.0" encoding="UTF-8" standalone="no"?>
<!-- Generator: Adobe Illustrator 14.0.0, SVG Export Plug-In . SVG Version: 6.00 Build 43363)  -->

<svg
   xmlns:dc="http://purl.org/dc/elements/1.1/"
   xmlns:cc="http://creativecommons.org/ns#"
   xmlns:rdf="http://www.w3.org/1999/02/22-rdf-syntax-ns#"
   xmlns:svg="http://www.w3.org/2000/svg"
   xmlns="http://www.w3.org/2000/svg"
   xmlns:sodipodi="http://sodipodi.sourceforge.net/DTD/sodipodi-0.dtd"
   xmlns:inkscape="http://www.inkscape.org/namespaces/inkscape"
   version="1.1"
   id="Layer_1"
   x="0px"
   y="0px"
   width="100"
   height="61"
   viewBox="0 0 100 61"
   enable-background="new 0 0 54 36"
   xml:space="preserve"
   inkscape:version="0.48.5 r10040"
   sodipodi:docname="Button.svg"><metadata
     id="metadata49"><rdf:RDF><cc:Work
         rdf:about=""><dc:format>image/svg+xml</dc:format><dc:type
           rdf:resource="http://purl.org/dc/dcmitype/StillImage" /></cc:Work></rdf:RDF></metadata><defs
     id="defs47" /><sodipodi:namedview
     pagecolor="#ffffff"
     bordercolor="#666666"
     borderopacity="1"
     objecttolerance="10"
     gridtolerance="10"
     guidetolerance="10"
     inkscape:pageopacity="0"
     inkscape:pageshadow="2"
     inkscape:window-width="1920"
     inkscape:window-height="1021"
     id="namedview45"
     showgrid="false"
     inkscape:zoom="6.0555556"
     inkscape:cx="7.3486239"
     inkscape:cy="18"
     inkscape:window-x="0"
     inkscape:window-y="0"
     inkscape:window-maximized="1"
     inkscape:current-layer="Layer_1" /><g
     id="g3026"
     transform="matrix(1.3051101,0,0,1.3075692,-3.8057011,-14.267607)"><g
       transform="matrix(1.5915478,0,0,1.5915478,-1.7249534,5.7374285)"
       id="g3"><path
         style="fill:#0098d7"
         inkscape:connector-curvature="0"
         id="path5"
         d="M 7.621,21.063 H 8.212 L 9.42,27.321 H 8.667 L 8.456,26.101 H 7.34 l -0.215,1.22 H 6.395 L 7.621,21.063 z M 8.347,25.449 8.179,24.452 C 8.067,23.773 7.976,23.05 7.906,22.279 7.872,22.655 7.828,23.035 7.775,23.421 7.721,23.806 7.658,24.214 7.586,24.647 L 7.447,25.45 h 0.9 z" /><path
         style="fill:#0098d7"
         inkscape:connector-curvature="0"
         id="path7"
         d="m 9.64,21.063 h 0.708 l 0.755,2.497 c 0.219,0.705 0.413,1.457 0.58,2.257 -0.061,-0.483 -0.105,-0.921 -0.135,-1.312 -0.03,-0.391 -0.044,-0.761 -0.044,-1.106 v -2.335 h 0.759 v 6.258 h -0.71 l -0.848,-2.816 c -0.078,-0.263 -0.151,-0.531 -0.221,-0.807 -0.069,-0.275 -0.133,-0.564 -0.191,-0.867 -0.005,-0.038 -0.013,-0.084 -0.024,-0.138 -0.011,-0.055 -0.023,-0.116 -0.038,-0.187 0.007,0.07 0.013,0.13 0.018,0.18 0.005,0.051 0.009,0.093 0.011,0.128 l 0.04,0.637 0.043,0.773 c 0.003,0.044 0.005,0.097 0.006,0.158 10e-4,0.062 0.002,0.133 0.002,0.211 l 0.04,2.728 H 9.64 v -6.259 z" /><path
         style="fill:#0098d7"
         inkscape:connector-curvature="0"
         id="path9"
         d="m 13.817,21.063 h 0.591 l 1.208,6.258 h -0.751 l -0.211,-1.22 h -1.116 l -0.215,1.22 h -0.729 l 1.223,-6.258 z m 0.726,4.386 -0.168,-0.997 c -0.112,-0.679 -0.203,-1.402 -0.273,-2.173 -0.034,0.376 -0.078,0.756 -0.131,1.142 -0.054,0.385 -0.117,0.793 -0.189,1.226 l -0.139,0.803 h 0.9 z" /><path
         style="fill:#0098d7"
         inkscape:connector-curvature="0"
         id="path11"
         d="m 15.985,21.063 h 0.759 v 5.545 h 1.24 v 0.713 h -1.999 v -6.258 z" /><path
         style="fill:#0098d7"
         inkscape:connector-curvature="0"
         id="path13"
         d="m 20.904,24.347 c 0,1.104 -0.11,1.89 -0.332,2.354 -0.221,0.465 -0.592,0.697 -1.112,0.697 -0.547,0 -0.933,-0.25 -1.156,-0.75 -0.221,-0.489 -0.332,-1.357 -0.332,-2.605 0,-1.113 0.109,-1.901 0.329,-2.363 0.221,-0.465 0.596,-0.697 1.123,-0.697 0.472,0 0.822,0.18 1.051,0.539 0.151,0.241 0.26,0.583 0.328,1.025 0.067,0.411 0.101,1.011 0.101,1.8 z m -0.795,0.089 c 0,-1.083 -0.044,-1.802 -0.131,-2.156 -0.087,-0.356 -0.266,-0.534 -0.536,-0.534 -0.27,0 -0.45,0.163 -0.54,0.49 -0.087,0.329 -0.131,0.991 -0.131,1.985 0,0.916 0.046,1.551 0.139,1.905 0.095,0.335 0.272,0.502 0.533,0.502 0.255,0 0.43,-0.156 0.525,-0.47 0.094,-0.31 0.141,-0.885 0.141,-1.722 z" /><path
         style="fill:#0098d7"
         inkscape:connector-curvature="0"
         id="path15"
         d="m 22.632,24.03 h 1.378 v 0.243 c 0,1.219 -0.096,2.041 -0.288,2.469 -0.189,0.438 -0.544,0.656 -1.065,0.656 -0.538,0 -0.92,-0.243 -1.149,-0.729 -0.226,-0.486 -0.339,-1.304 -0.339,-2.452 0,-1.313 0.124,-2.187 0.372,-2.622 0.233,-0.408 0.592,-0.612 1.076,-0.612 0.37,0 0.658,0.099 0.864,0.296 0.209,0.2 0.372,0.528 0.489,0.985 l -0.708,0.328 c -0.032,-0.165 -0.067,-0.304 -0.105,-0.415 -0.039,-0.112 -0.082,-0.199 -0.128,-0.262 -0.092,-0.127 -0.231,-0.19 -0.416,-0.19 -0.253,0 -0.425,0.173 -0.518,0.519 -0.093,0.362 -0.139,1.012 -0.139,1.949 0,0.948 0.047,1.59 0.142,1.925 0.095,0.336 0.273,0.503 0.536,0.503 0.241,0 0.41,-0.119 0.507,-0.356 0.1,-0.254 0.149,-0.662 0.149,-1.224 V 24.87 24.745 H 22.63 V 24.03 z" /><path
         style="fill:#0098d7"
         inkscape:connector-curvature="0"
         id="path17"
         d="m 24.257,24.857 h 1.328 v 0.632 h -1.328 v -0.632 z" /><path
         style="fill:#0098d7"
         inkscape:connector-curvature="0"
         id="path19"
         d="m 25.988,21.951 h 0.696 v 1.176 h 0.379 v 0.616 h -0.379 v 3.578 h -0.696 v -3.578 h -0.383 v -0.616 h 0.383 v -1.176 z" /><path
         style="fill:#0098d7"
         inkscape:connector-curvature="0"
         id="path21"
         d="m 29.553,25.259 c 0,1.418 -0.395,2.127 -1.186,2.127 -0.789,0 -1.185,-0.72 -1.185,-2.16 0,-1.445 0.394,-2.168 1.182,-2.168 0.204,0 0.381,0.043 0.53,0.13 0.15,0.087 0.273,0.221 0.371,0.401 0.097,0.181 0.169,0.409 0.217,0.685 0.047,0.275 0.071,0.604 0.071,0.985 z m -0.722,-0.021 c 0,-0.552 -0.032,-0.935 -0.099,-1.151 -0.065,-0.219 -0.182,-0.328 -0.35,-0.328 -0.166,0 -0.283,0.108 -0.354,0.324 -0.065,0.217 -0.099,0.593 -0.099,1.131 0,0.538 0.033,0.913 0.099,1.127 0.071,0.216 0.188,0.324 0.354,0.324 0.165,0 0.28,-0.107 0.346,-0.32 0.069,-0.2 0.103,-0.57 0.103,-1.107 z" /><path
         style="fill:#0098d7"
         inkscape:connector-curvature="0"
         id="path23"
         d="m 29.733,24.857 h 1.327 v 0.632 h -1.327 v -0.632 z" /><path
         style="fill:#0098d7"
         inkscape:connector-curvature="0"
         id="path25"
         d="m 31.42,21.063 h 0.934 c 0.285,0 0.524,0.035 0.719,0.105 0.18,0.067 0.341,0.188 0.482,0.361 0.211,0.259 0.361,0.597 0.451,1.013 0.09,0.402 0.136,0.979 0.136,1.73 0,0.689 -0.05,1.251 -0.149,1.687 -0.098,0.416 -0.258,0.733 -0.482,0.952 -0.274,0.272 -0.767,0.409 -1.477,0.409 H 31.42 v -6.257 z m 0.76,5.521 c 0.461,0 0.77,-0.155 0.926,-0.467 0.16,-0.311 0.24,-0.914 0.24,-1.812 0,-0.964 -0.076,-1.627 -0.229,-1.989 -0.153,-0.362 -0.434,-0.543 -0.843,-0.543 H 32.18 v 4.811 z" /><path
         style="fill:#0098d7"
         inkscape:connector-curvature="0"
         id="path27"
         d="m 34.672,21.063 h 0.76 v 6.258 h -0.76 v -6.258 z" /><path
         style="fill:#0098d7"
         inkscape:connector-curvature="0"
         id="path29"
         d="m 37.425,24.03 h 1.378 v 0.243 c 0,1.219 -0.096,2.041 -0.287,2.469 -0.189,0.438 -0.545,0.656 -1.065,0.656 -0.538,0 -0.921,-0.243 -1.149,-0.729 -0.226,-0.486 -0.339,-1.304 -0.339,-2.452 0,-1.313 0.124,-2.187 0.372,-2.622 0.233,-0.408 0.592,-0.612 1.076,-0.612 0.369,0 0.658,0.099 0.864,0.296 0.21,0.2 0.372,0.528 0.489,0.985 l -0.708,0.328 c -0.032,-0.165 -0.067,-0.304 -0.105,-0.415 -0.039,-0.112 -0.081,-0.199 -0.128,-0.262 -0.092,-0.127 -0.23,-0.19 -0.416,-0.19 -0.253,0 -0.426,0.173 -0.518,0.519 -0.093,0.362 -0.139,1.012 -0.139,1.949 0,0.948 0.047,1.59 0.143,1.925 0.094,0.336 0.273,0.503 0.535,0.503 0.241,0 0.41,-0.119 0.508,-0.356 0.1,-0.254 0.149,-0.662 0.149,-1.224 V 24.87 24.745 h -0.66 V 24.03 z" /><path
         style="fill:#0098d7"
         inkscape:connector-curvature="0"
         id="path31"
         d="m 39.334,21.063 h 0.76 v 6.258 h -0.76 v -6.258 z" /><path
         style="fill:#0098d7"
         inkscape:connector-curvature="0"
         id="path33"
         d="m 40.289,21.063 h 2.469 v 0.738 h -0.85 v 5.52 h -0.744 v -5.52 h -0.875 v -0.738 z" /><path
         style="fill:#0098d7"
         inkscape:connector-curvature="0"
         id="path35"
         d="m 43.502,21.063 h 0.59 l 1.208,6.258 h -0.751 l -0.212,-1.22 h -1.116 l -0.215,1.22 h -0.73 l 1.226,-6.258 z m 0.726,4.386 -0.168,-0.997 c -0.112,-0.679 -0.203,-1.402 -0.273,-2.173 -0.034,0.376 -0.077,0.756 -0.132,1.142 -0.053,0.385 -0.116,0.793 -0.189,1.226 l -0.139,0.803 h 0.901 z" /><path
         style="fill:#0098d7"
         inkscape:connector-curvature="0"
         id="path37"
         d="m 45.67,21.063 h 0.759 v 5.545 h 1.239 v 0.713 H 45.67 v -6.258 z" /></g><path
       style="fill:#0098d7"
       inkscape:connector-curvature="0"
       id="path39"
       d="M 74.349441,10.91155 H 8.1028543 C 5.2380683,10.91155 2.916,13.233619 2.916,16.098405 v 36.276149 c 0,2.863195 2.3220683,5.188446 5.1868543,5.188446 H 74.349441 c 2.864786,0 5.188445,-2.325251 5.188445,-5.188446 V 16.098405 c 0,-2.864786 -2.323659,-5.186855 -5.188445,-5.186855 z m 1.632928,39.884189 c 0,1.831871 -1.486506,3.319968 -3.318378,3.319968 H 9.5145572 c -1.8318715,0 -3.3167856,-1.488097 -3.3167856,-3.319968 V 37.760962 c 0,-1.83028 1.4849141,-3.315194 3.3167856,-3.315194 H 50.665618 c 2.473265,3.068504 6.253191,5.037249 10.491483,5.037249 4.233517,0 8.013443,-1.968745 10.486708,-5.037249 h 1.020182 c 1.831872,0 3.318378,1.484914 3.318378,3.315194 v 13.034777 z" /><path
       style="fill:#ffffff"
       inkscape:connector-curvature="0"
       id="path41"
       d="m 61.158692,14.428871 c -6.382106,0 -11.576919,5.194812 -11.580102,11.57851 0,6.38529 5.196404,11.578511 11.580102,11.578511 6.380515,0 11.573736,-5.194812 11.576919,-11.578511 0,-6.383698 -5.194812,-11.57851 -11.576919,-11.57851 z m 0,20.932037 c -5.158206,0 -9.355118,-4.196912 -9.355118,-9.353527 0,-5.156614 4.196912,-9.353526 9.355118,-9.356709 5.158207,0 9.355118,4.198503 9.355118,9.356709 0,5.158207 -4.196911,9.353527 -9.355118,9.353527 z" /><path
       style="fill:#ffffff"
       inkscape:connector-curvature="0"
       id="path43"
       d="m 67.691996,24.466763 c -0.638211,0 -1.158647,0.510887 -1.158647,1.14114 0,0.0048 0.0032,0.0095 0.0032,0.01591 v 0.381972 c 0,1.172971 -0.95652,2.129491 -2.129491,2.131082 -1.17297,0 -2.129491,-0.954928 -2.129491,-2.127899 0,-1.188886 -0.46314,-2.306153 -1.305069,-3.148082 -0.838746,-0.837154 -1.951237,-1.297111 -3.130574,-1.297111 -0.0016,0 -0.0048,0 -0.0064,0 -2.452575,0 -4.446784,1.992618 -4.446784,4.44201 v 0.397887 c 0,0.630253 0.518844,1.14114 1.158647,1.14114 0.639802,0 1.160238,-0.510887 1.160238,-1.14114 V 26.00579 c 0,-1.172971 0.95652,-2.129491 2.129491,-2.129491 0.566591,0 1.09976,0.221225 1.502421,0.623887 0.402662,0.404253 0.623887,0.939013 0.623887,1.508787 0,2.450984 1.994209,4.445193 4.445193,4.445193 2.449392,0 4.443601,-1.995801 4.443601,-4.448376 v -0.397887 c 0,-0.630253 -0.518844,-1.14114 -1.160238,-1.14114 z" /></g></svg>